<svg width="800" height="800" viewBox="0 0 800 800" fill="none" xmlns="http://www.w3.org/2000/svg">
  <path d="M800 400C800 620.914 620.914 800 400 800C179.086 800 0 620.914 0 400C0 179.086 179.086 0 400 0C620.914 0 800 179.086 800 400Z" fill="white"/>
  <mask id="mask0_12_34" style="mask-type:alpha" maskUnits="userSpaceOnUse" x="0" y="0" width="800" height="800">
    <path d="M783.239 482.89C742.083 650.307 608.594 757.705 442.145 757.705C275.697 757.705 130.638 628.542 130.638 461.089C130.638 293.636 213.02 126.183 380.474 126.183C547.927 126.183 713.818 217.445 771.963 366.167C830.109 514.89 824.395 315.472 783.239 482.89Z" fill="white"/>
  </mask>
  <g mask="url(#mask0_12_34)">
    <rect width="800" height="800" fill="white"/>
  </g>
</svg> 