<svg width="185" height="37" viewBox="0 0 185 37" fill="none" xmlns="http://www.w3.org/2000/svg">
<path d="M26.8285 13.551C26.8285 17.2553 23.8256 20.2582 20.1213 20.2582C16.417 20.2582 13.4141 17.2553 13.4141 13.551C13.4141 9.84668 16.417 6.84375 20.1213 6.84375C23.8256 6.84375 26.8285 9.84668 26.8285 13.551Z" fill="#15B67A"/>
<path fill-rule="evenodd" clip-rule="evenodd" d="M26.3196 16.1184L24.5494 15.3844C24.7826 14.8222 24.9122 14.2041 24.9122 13.551C24.9122 12.8979 24.7826 12.2798 24.5494 11.7176L26.3196 10.9835C26.6475 11.7744 26.8285 12.6415 26.8285 13.551C26.8285 14.4604 26.6475 15.3276 26.3196 16.1184ZM22.6888 7.3527L21.9547 9.12289C21.3925 8.88974 20.7744 8.7601 20.1213 8.7601C19.4682 8.7601 18.8501 8.88974 18.2879 9.12289L17.5539 7.3527C18.3447 7.02475 19.2119 6.84375 20.1213 6.84375C21.0307 6.84375 21.8979 7.02475 22.6888 7.3527ZM13.923 10.9835C13.5951 11.7744 13.4141 12.6415 13.4141 13.551C13.4141 14.4604 13.5951 15.3276 13.923 16.1184L15.6932 15.3844C15.4601 14.8222 15.3304 14.2041 15.3304 13.551C15.3304 12.8979 15.4601 12.2798 15.6932 11.7176L13.923 10.9835ZM17.5539 19.7493L18.2879 17.9791C18.8501 18.2122 19.4682 18.3419 20.1213 18.3419C20.7744 18.3419 21.3925 18.2122 21.9547 17.9791L22.6888 19.7493C21.8979 20.0772 21.0307 20.2582 20.1213 20.2582C19.2119 20.2582 18.3447 20.0772 17.5539 19.7493Z" fill="#123524"/>
<path fill-rule="evenodd" clip-rule="evenodd" d="M19.5398 7.52743C15.3671 5.79342 10.5787 7.77041 8.84473 11.9431C7.11073 16.1159 9.08771 20.9042 13.2604 22.6383L14.2947 23.0681L14.2947 26.4707C15.4865 26.4707 16.4526 27.4368 16.4526 28.6285L16.4526 29.8273L13.3507 29.8273C12.0182 29.8273 10.9381 28.7472 10.9381 27.4147L10.9381 25.2475C5.76933 22.478 3.44773 16.1834 5.74508 10.6551C8.19047 4.77044 14.9433 1.98238 20.8279 4.42777C26.7125 6.87317 29.5006 13.626 27.0552 19.5106C25.9988 22.0528 24.1361 24.0184 21.8898 25.232L21.8898 28.149C20.0359 28.149 18.5331 26.6462 18.5331 24.7923L18.5331 23.0602L19.5628 22.6287C21.4829 21.824 23.0944 20.2949 23.9556 18.2225C25.6896 14.0498 23.7126 9.26143 19.5398 7.52743Z" fill="#123524"/>
<path d="M21.4519 29.5618C21.9919 31.2746 21.0412 33.1009 19.3284 33.6409L10.6296 36.3835C10.0896 34.6707 11.0403 32.8444 12.7531 32.3044L21.4519 29.5618Z" fill="#123524"/>
<path d="M42.1354 18.074C42.0419 17.2849 41.6629 16.6723 40.9984 16.2362C40.3339 15.8001 39.5188 15.5821 38.5532 15.5821C37.8472 15.5821 37.2294 15.6963 36.6999 15.9247C36.1755 16.1531 35.7654 16.4672 35.4695 16.8669C35.1788 17.2667 35.0334 17.7209 35.0334 18.2297C35.0334 18.6554 35.1346 19.0214 35.3371 19.3277C35.5448 19.6288 35.8095 19.8806 36.1314 20.0831C36.4533 20.2804 36.7907 20.4439 37.1437 20.5737C37.4968 20.6983 37.8212 20.7995 38.1171 20.8774L39.7369 21.3135C40.1522 21.4225 40.6142 21.573 41.123 21.7651C41.637 21.9572 42.1276 22.2194 42.5948 22.5516C43.0672 22.8787 43.4566 23.2992 43.7629 23.8132C44.0692 24.3271 44.2223 24.9579 44.2223 25.7055C44.2223 26.5672 43.9965 27.346 43.5448 28.0416C43.0984 28.7373 42.4442 29.2902 41.5825 29.7003C40.7259 30.1104 39.685 30.3155 38.4598 30.3155C37.3177 30.3155 36.3287 30.1312 35.4928 29.7626C34.6622 29.394 34.0081 28.8801 33.5305 28.2207C33.058 27.5614 32.7907 26.7957 32.7284 25.9235H34.7219C34.7738 26.5257 34.9763 27.0241 35.3293 27.4186C35.6875 27.808 36.1392 28.0987 36.6843 28.2908C37.2346 28.4777 37.8264 28.5712 38.4598 28.5712C39.197 28.5712 39.8589 28.4518 40.4455 28.2129C41.0322 27.9689 41.4968 27.6315 41.8394 27.2006C42.1821 26.7645 42.3534 26.2558 42.3534 25.6743C42.3534 25.1448 42.2054 24.7139 41.9095 24.3816C41.6136 24.0494 41.2242 23.7794 40.7414 23.5718C40.2586 23.3641 39.7369 23.1824 39.1762 23.0266L37.2138 22.466C35.9679 22.1078 34.9815 21.5964 34.2547 20.9319C33.5279 20.2674 33.1645 19.3978 33.1645 18.3232C33.1645 17.4302 33.4059 16.6515 33.8887 15.987C34.3767 15.3173 35.0308 14.7981 35.8511 14.4295C36.6765 14.0558 37.598 13.8689 38.6155 13.8689C39.6434 13.8689 40.5571 14.0532 41.3566 14.4218C42.1561 14.7852 42.7895 15.2835 43.2567 15.9169C43.7291 16.5503 43.9783 17.2693 44.0043 18.074H42.1354ZM54.6864 25.1448V18.074H56.5242V30.0352H54.6864V28.0105H54.5618C54.2815 28.6179 53.8454 29.1344 53.2536 29.5601C52.6617 29.9806 51.9142 30.1909 51.0108 30.1909C50.2633 30.1909 49.5988 30.0274 49.0173 29.7003C48.4359 29.3681 47.979 28.8697 47.6468 28.2052C47.3145 27.5355 47.1484 26.6918 47.1484 25.6743V18.074H48.9862V25.5497C48.9862 26.4219 49.2302 27.1175 49.7182 27.6367C50.2114 28.1558 50.8395 28.4154 51.6027 28.4154C52.0595 28.4154 52.5242 28.2986 52.9966 28.065C53.4742 27.8314 53.874 27.4732 54.1958 26.9903C54.5229 26.5075 54.6864 25.8923 54.6864 25.1448ZM68.3627 20.7528L66.7119 21.22C66.608 20.9449 66.4549 20.6775 66.2524 20.4179C66.0551 20.1532 65.7852 19.9351 65.4425 19.7638C65.0999 19.5925 64.6612 19.5068 64.1265 19.5068C63.3945 19.5068 62.7845 19.6755 62.2965 20.013C61.8137 20.3452 61.5723 20.7684 61.5723 21.2823C61.5723 21.7392 61.7384 22.1 62.0707 22.3647C62.4029 22.6295 62.9221 22.8501 63.6281 23.0266L65.4036 23.4627C66.473 23.7223 67.2699 24.1195 67.7943 24.6542C68.3186 25.1837 68.5808 25.8664 68.5808 26.7022C68.5808 27.3875 68.3835 28.0001 67.989 28.54C67.5996 29.0799 67.0545 29.5056 66.3536 29.8171C65.6528 30.1286 64.8377 30.2843 63.9084 30.2843C62.6884 30.2843 61.6787 30.0196 60.8792 29.4901C60.0797 28.9605 59.5736 28.187 59.3607 27.1695L61.105 26.7334C61.2712 27.3771 61.5853 27.8599 62.0473 28.1818C62.5145 28.5037 63.1245 28.6646 63.8773 28.6646C64.7339 28.6646 65.414 28.4829 65.9176 28.1195C66.4263 27.7509 66.6807 27.3096 66.6807 26.7957C66.6807 26.3803 66.5353 26.0325 66.2446 25.7522C65.9539 25.4666 65.5074 25.2538 64.9052 25.1136L62.9117 24.6464C61.8163 24.3868 61.0116 23.9845 60.4976 23.4394C59.9889 22.8891 59.7345 22.2012 59.7345 21.3758C59.7345 20.7009 59.924 20.1038 60.303 19.5847C60.6871 19.0655 61.2089 18.658 61.8682 18.3621C62.5327 18.0662 63.2855 17.9182 64.1265 17.9182C65.3102 17.9182 66.2394 18.1778 66.9143 18.6969C67.5944 19.2161 68.0772 19.9014 68.3627 20.7528ZM76.5491 18.074V19.6314H70.3504V18.074H76.5491ZM72.1571 15.2083H73.9949V26.6088C73.9949 27.1279 74.0701 27.5173 74.2207 27.7769C74.3764 28.0312 74.5737 28.2026 74.8125 28.2908C75.0565 28.3739 75.3135 28.4154 75.5835 28.4154C75.7859 28.4154 75.9521 28.405 76.0818 28.3843C76.2116 28.3583 76.3155 28.3375 76.3933 28.322L76.7671 29.9729C76.6425 30.0196 76.4686 30.0663 76.2454 30.113C76.0221 30.1649 75.7392 30.1909 75.3966 30.1909C74.8774 30.1909 74.3686 30.0793 73.8703 29.856C73.3771 29.6328 72.9669 29.2928 72.6399 28.8359C72.318 28.3791 72.1571 27.8028 72.1571 27.1072V15.2083ZM82.8334 30.3155C82.0754 30.3155 81.3875 30.1727 80.7698 29.8872C80.152 29.5965 79.6614 29.1786 79.298 28.6335C78.9346 28.0832 78.7529 27.4186 78.7529 26.6399C78.7529 25.9546 78.8878 25.3992 79.1578 24.9735C79.4278 24.5426 79.7886 24.2051 80.2402 23.9611C80.6919 23.7171 81.1903 23.5354 81.7354 23.416C82.2857 23.2914 82.8386 23.1928 83.394 23.1201C84.1209 23.0266 84.7101 22.9566 85.1617 22.9098C85.6186 22.8579 85.9509 22.7723 86.1585 22.6529C86.3714 22.5335 86.4778 22.3258 86.4778 22.0299V21.9676C86.4778 21.1992 86.2675 20.6022 85.847 20.1765C85.4317 19.7508 84.8009 19.538 83.9547 19.538C83.0774 19.538 82.3895 19.7301 81.8911 20.1142C81.3927 20.4984 81.0423 20.9085 80.8398 21.3446L79.0955 20.7216C79.407 19.9948 79.8223 19.4289 80.3415 19.024C80.8658 18.6139 81.4369 18.3284 82.0546 18.1674C82.6776 18.0013 83.2902 17.9182 83.8924 17.9182C84.2766 17.9182 84.7179 17.9649 85.2163 18.0584C85.7198 18.1467 86.2052 18.3309 86.6725 18.6113C87.1449 18.8916 87.5369 19.3147 87.8483 19.8806C88.1598 20.4465 88.3156 21.2044 88.3156 22.1545V30.0352H86.4778V28.4154H86.3843C86.2597 28.675 86.0521 28.9527 85.7614 29.2486C85.4706 29.5446 85.0839 29.7963 84.6011 30.004C84.1183 30.2117 83.529 30.3155 82.8334 30.3155ZM83.1137 28.6646C83.8405 28.6646 84.4531 28.5218 84.9515 28.2363C85.4551 27.9508 85.834 27.5822 86.0884 27.1305C86.348 26.6789 86.4778 26.2038 86.4778 25.7055V24.0234C86.3999 24.1169 86.2286 24.2025 85.9638 24.2804C85.7043 24.3531 85.4032 24.418 85.0605 24.4751C84.7231 24.527 84.3934 24.5737 84.0715 24.6152C83.7549 24.6516 83.4979 24.6827 83.3006 24.7087C82.823 24.771 82.3765 24.8722 81.9612 25.0124C81.5511 25.1474 81.2188 25.3524 80.9644 25.6276C80.7152 25.8975 80.5906 26.2661 80.5906 26.7334C80.5906 27.3719 80.8269 27.8547 81.2993 28.1818C81.7769 28.5037 82.3817 28.6646 83.1137 28.6646ZM91.6699 30.0352V18.074H93.5077V30.0352H91.6699ZM92.6044 16.0804C92.2462 16.0804 91.9373 15.9584 91.6777 15.7144C91.4233 15.4704 91.2961 15.1771 91.2961 14.8345C91.2961 14.4918 91.4233 14.1985 91.6777 13.9545C91.9373 13.7105 92.2462 13.5885 92.6044 13.5885C92.9626 13.5885 93.2689 13.7105 93.5233 13.9545C93.7829 14.1985 93.9126 14.4918 93.9126 14.8345C93.9126 15.1771 93.7829 15.4704 93.5233 15.7144C93.2689 15.9584 92.9626 16.0804 92.6044 16.0804ZM98.7115 22.8398V30.0352H96.8737V18.074H98.6492V19.9429H98.805C99.0853 19.3355 99.511 18.8475 100.082 18.4789C100.653 18.1051 101.39 17.9182 102.294 17.9182C103.104 17.9182 103.812 18.0844 104.42 18.4166C105.027 18.7437 105.499 19.2421 105.837 19.9118C106.174 20.5763 106.343 21.4173 106.343 22.4348V30.0352H104.505V22.5594C104.505 21.6198 104.261 20.8878 103.773 20.3634C103.285 19.8339 102.616 19.5691 101.764 19.5691C101.177 19.5691 100.653 19.6963 100.191 19.9507C99.7343 20.2051 99.3734 20.5763 99.1087 21.0643C98.8439 21.5523 98.7115 22.1441 98.7115 22.8398Z" fill="#15B67A"/>
<path d="M111.472 14.0869L115.327 26.2038H115.475L119.338 14.0869H123.075L117.578 30.0352H113.232L107.727 14.0869H111.472ZM129.035 30.2688C127.804 30.2688 126.745 30.0196 125.857 29.5212C124.975 29.0176 124.295 28.3064 123.817 27.3875C123.34 26.4634 123.101 25.3706 123.101 24.1091C123.101 22.8787 123.34 21.7989 123.817 20.8696C124.295 19.9403 124.967 19.2161 125.834 18.6969C126.706 18.1778 127.729 17.9182 128.902 17.9182C129.691 17.9182 130.426 18.0454 131.106 18.2998C131.791 18.549 132.388 18.9254 132.897 19.4289C133.411 19.9325 133.811 20.5659 134.096 21.329C134.382 22.087 134.525 22.9747 134.525 23.9923V24.9034H124.425V22.8475H131.402C131.402 22.3699 131.298 21.9468 131.09 21.5782C130.883 21.2096 130.595 20.9215 130.226 20.7138C129.863 20.501 129.44 20.3946 128.957 20.3946C128.453 20.3946 128.007 20.5114 127.617 20.745C127.233 20.9734 126.932 21.2823 126.714 21.6717C126.496 22.0558 126.384 22.4841 126.379 22.9566V24.9112C126.379 25.503 126.488 26.0143 126.706 26.4452C126.929 26.8761 127.244 27.2084 127.649 27.442C128.053 27.6756 128.534 27.7924 129.089 27.7924C129.458 27.7924 129.795 27.7405 130.101 27.6367C130.408 27.5329 130.67 27.3771 130.888 27.1695C131.106 26.9618 131.272 26.7074 131.386 26.4063L134.455 26.6088C134.299 27.346 133.98 27.9897 133.497 28.54C133.019 29.0851 132.401 29.5108 131.643 29.8171C130.891 30.1182 130.021 30.2688 129.035 30.2688ZM136.689 30.0352V18.074H139.906V20.1609H140.03C140.248 19.4186 140.614 18.8579 141.128 18.4789C141.642 18.0947 142.234 17.9027 142.904 17.9027C143.07 17.9027 143.249 17.913 143.441 17.9338C143.633 17.9546 143.802 17.9831 143.947 18.0195V20.963C143.791 20.9163 143.576 20.8748 143.301 20.8384C143.026 20.8021 142.774 20.7839 142.545 20.7839C142.057 20.7839 141.621 20.8904 141.237 21.1032C140.858 21.3109 140.557 21.6016 140.334 21.9754C140.116 22.3492 140.007 22.7801 140.007 23.2681V30.0352H136.689ZM155.614 21.4848L152.577 21.6717C152.525 21.4121 152.414 21.1785 152.243 20.9708C152.071 20.758 151.845 20.5892 151.565 20.4646C151.29 20.3349 150.96 20.27 150.576 20.27C150.062 20.27 149.629 20.379 149.276 20.597C148.923 20.8099 148.746 21.0954 148.746 21.4536C148.746 21.7392 148.86 21.9806 149.089 22.1778C149.317 22.3751 149.709 22.5335 150.265 22.6529L152.429 23.0889C153.592 23.3278 154.459 23.7119 155.03 24.2415C155.601 24.771 155.887 25.4666 155.887 26.3284C155.887 27.1123 155.656 27.8002 155.194 28.3921C154.737 28.9839 154.109 29.4459 153.309 29.7782C152.515 30.1052 151.599 30.2688 150.56 30.2688C148.977 30.2688 147.716 29.9391 146.776 29.2798C145.841 28.6153 145.294 27.712 145.133 26.5698L148.396 26.3985C148.494 26.8813 148.733 27.2499 149.112 27.5043C149.491 27.7535 149.976 27.8781 150.568 27.8781C151.15 27.8781 151.617 27.7665 151.97 27.5432C152.328 27.3148 152.51 27.0215 152.515 26.6633C152.51 26.3622 152.383 26.1156 152.134 25.9235C151.884 25.7262 151.5 25.5757 150.981 25.4718L148.91 25.0591C147.742 24.8255 146.872 24.4206 146.301 23.8443C145.735 23.2681 145.452 22.5335 145.452 21.6405C145.452 20.8722 145.66 20.2103 146.075 19.6548C146.496 19.0993 147.085 18.671 147.843 18.3699C148.606 18.0688 149.499 17.9182 150.522 17.9182C152.032 17.9182 153.221 18.2375 154.088 18.8761C154.96 19.5146 155.469 20.3842 155.614 21.4848ZM157.976 30.0352V18.074H161.293V30.0352H157.976ZM159.642 16.5321C159.149 16.5321 158.726 16.3686 158.373 16.0415C158.025 15.7092 157.851 15.3121 157.851 14.8501C157.851 14.3932 158.025 14.0012 158.373 13.6742C158.726 13.3419 159.149 13.1758 159.642 13.1758C160.136 13.1758 160.556 13.3419 160.904 13.6742C161.257 14.0012 161.433 14.3932 161.433 14.8501C161.433 15.3121 161.257 15.7092 160.904 16.0415C160.556 16.3686 160.136 16.5321 159.642 16.5321ZM170.313 18.074V20.5659H163.11V18.074H170.313ZM164.745 15.2083H168.062V26.3596C168.062 26.6659 168.109 26.9047 168.202 27.076C168.296 27.2421 168.426 27.3589 168.592 27.4264C168.763 27.4939 168.96 27.5277 169.184 27.5277C169.339 27.5277 169.495 27.5147 169.651 27.4887C169.807 27.4576 169.926 27.4342 170.009 27.4186L170.531 29.8872C170.365 29.9391 170.131 29.9988 169.83 30.0663C169.529 30.139 169.163 30.1831 168.732 30.1987C167.932 30.2298 167.232 30.1234 166.629 29.8794C166.032 29.6354 165.568 29.2564 165.236 28.7425C164.903 28.2285 164.74 27.5796 164.745 26.7957V15.2083ZM174.522 34.5206C174.101 34.5206 173.707 34.4869 173.338 34.4194C172.975 34.3571 172.674 34.2766 172.435 34.178L173.182 31.7016C173.572 31.821 173.922 31.8859 174.234 31.8963C174.55 31.9067 174.823 31.834 175.051 31.6783C175.285 31.5225 175.474 31.2578 175.62 30.884L175.814 30.3778L171.524 18.074H175.012L177.489 26.858H177.613L180.113 18.074H183.625L178.976 31.3278C178.753 31.9716 178.449 32.5323 178.065 33.0099C177.686 33.4927 177.206 33.8639 176.624 34.1235C176.043 34.3882 175.342 34.5206 174.522 34.5206Z" fill="#123524"/>
</svg>
